<svg width="1000" height="222" viewBox="0 0 1000 222" fill="none" xmlns="http://www.w3.org/2000/svg">
<path d="M780.313 90.5954C780 86.5115 776.58 83.313 772.519 83.313L694.046 83.1909C690.68 83.1909 687.924 85.9771 687.916 89.397L687.809 116.374C687.809 118.061 688.451 119.649 689.618 120.84C690.786 122.031 692.351 122.695 694.008 122.695H732.283C728.817 135.443 717.748 151.496 688.496 151.496C660.008 151.496 640.099 129.504 640.099 98.0306C640.099 67.3359 661.405 45.0687 690.748 45.0687C710.649 45.0687 720.489 49.7557 733.596 59.2901C737.473 62.0993 740.771 62.1832 743.657 59.5038L764.542 38.2824C767.672 35.1527 767.672 31.2061 764.634 27.9542C757.023 19.855 733.374 0 690.107 0C633.672 0 592.718 41.229 592.718 98.0306C592.718 126.794 603.076 152.382 621.909 170.092C639.351 186.519 664.191 195.947 690.061 195.947C739.855 195.947 780.634 155.183 780.634 99.0153C780.634 96.3054 780.519 93.4733 780.313 90.5954Z" fill="#552373"/>
<path d="M386.519 4.64886H314.817C311.626 4.64886 309.023 7.29008 309.023 10.5267L308.908 185.664C308.908 187.229 309.512 188.71 310.603 189.824C311.695 190.939 313.145 191.55 314.702 191.55H386.512C443.389 191.55 481.611 153.763 481.611 98.0458C481.611 42.3283 443.389 4.64886 386.519 4.64886ZM434.229 98.0382C434.229 129.137 416.702 147.328 386.138 147.328H354.809V48.8626H386.138C416.702 48.8626 434.229 66.9389 434.229 98.0382Z" fill="#552373"/>
<path d="M178.046 0.175573C121.298 0.175573 86.0535 37.2443 86.0535 96.9084L85.9313 185.641C85.9313 188.878 88.5191 191.519 91.7099 191.527L125.977 191.511C129.168 191.511 131.771 188.87 131.771 185.634V96.9313C131.771 64.5038 148.634 45.916 178.046 45.916C207.458 45.916 224.321 64.5115 224.321 96.9237L224.206 185.626C224.206 187.199 224.802 188.672 225.901 189.779C226.992 190.893 228.45 191.511 230 191.511H264.252C267.443 191.511 270.038 188.878 270.038 185.634V96.9237C270.038 37.2443 234.794 0.175573 178.046 0.175573Z" fill="#552373"/>
<path d="M554.397 191.473H520.649C517.237 191.473 514.466 188.672 514.466 185.199V10.9008C514.466 7.43512 517.229 4.62596 520.649 4.62596H554.397C557.809 4.62596 560.588 7.43512 560.588 10.9008V185.199C560.588 188.672 557.809 191.473 554.397 191.473Z" fill="#552373"/>
<path d="M39.9313 191.473H6.19084C2.77099 191.473 0 188.672 0 185.199V10.9008C0 7.43512 2.77099 4.62596 6.19084 4.62596H39.9313C43.3512 4.62596 46.1145 7.43512 46.1145 10.9008V185.199C46.1145 188.672 43.3512 191.473 39.9313 191.473Z" fill="#552373"/>
<path d="M904.107 0.175293C849.504 0.175293 808.214 42.8089 808.214 97.0074C808.214 146.252 842.237 176.595 900.695 220.206C902.725 221.717 905.527 221.763 907.58 220.305C960.87 182.588 1000 146.42 1000 97.0074C1000 42.4425 958.718 0.175293 904.107 0.175293ZM904.107 154.603C875.901 154.603 853.031 130.076 853.031 99.8318C853.031 69.5875 875.901 45.0684 904.107 45.0684C932.313 45.0684 955.183 69.5875 955.183 99.8318C955.183 130.076 932.313 154.603 904.107 154.603Z" fill="#B80E80"/>
</svg>
